<svg xmlns="http://www.w3.org/2000/svg" version="1.1" xmlns:xlink="http://www.w3.org/1999/xlink" xmlns:svgjs="http://svgjs.dev/svgjs" width="1500" height="446" viewBox="0 0 1500 446"><g transform="matrix(1,0,0,1,-0.9090909090909918,-0.07581092881355289)"><svg viewBox="0 0 396 118" data-background-color="#ffffff" preserveAspectRatio="xMidYMid meet" height="446" width="1500" xmlns="http://www.w3.org/2000/svg" xmlns:xlink="http://www.w3.org/1999/xlink"><g id="tight-bounds" transform="matrix(1,0,0,1,0.2400000000000091,0.02005760000000123)"><svg viewBox="0 0 395.52 117.95988479999998" height="117.95988479999998" width="395.52"><g><svg viewBox="0 0 395.52 117.95988479999998" height="117.95988479999998" width="395.52"><g><svg viewBox="0 0 395.52 117.95988479999998" height="117.95988479999998" width="395.52"><g id="textblocktransform"><svg viewBox="0 0 395.52 117.95988479999998" height="117.95988479999998" width="395.52" id="textblock"><g><svg viewBox="0 0 395.52 117.95988479999998" height="117.95988479999998" width="395.52"><g transform="matrix(1,0,0,1,0,0)"><svg width="395.52" viewBox="3.98 -39.5 152.87 45.51" height="117.95988479999998" data-palette-color="#fc5a03"><g class="wordmark-text-0" data-fill-palette-color="primary" id="text-0"><path d="M8.47-24.12L8.47 0 3.98 0 3.98-35.16 10.28-35.16 31.64-11.01 31.64-35.16 36.11-35.16 36.11 0 29.81 0 8.47-24.12ZM52.19-35.01L52.19-35.01Q52.19-34.08 51.84-33.25 51.49-32.42 50.88-31.81 50.27-31.2 49.44-30.85 48.61-30.49 47.68-30.49L47.68-30.49Q46.75-30.49 45.93-30.85 45.11-31.2 44.5-31.81 43.89-32.42 43.54-33.25 43.19-34.08 43.19-35.01L43.19-35.01Q43.19-35.94 43.54-36.76 43.89-37.57 44.5-38.18 45.11-38.79 45.93-39.15 46.75-39.5 47.68-39.5L47.68-39.5Q48.61-39.5 49.44-39.15 50.27-38.79 50.88-38.18 51.49-37.57 51.84-36.76 52.19-35.94 52.19-35.01ZM51.83-28.17L51.83 0 43.55 0 43.55-28.17 51.83-28.17ZM83-9.01L83-9.01Q83-7.15 82.47-5.71 81.93-4.27 81-3.21 80.07-2.15 78.8-1.43 77.53-0.71 76.08-0.27 74.63 0.17 73.04 0.37 71.45 0.56 69.89 0.56L69.89 0.56Q67.79 0.56 66.18 0.29 64.57 0.02 63.11-0.57 61.64-1.17 60.19-2.12 58.74-3.08 56.95-4.44L56.95-4.44 61.76-8.37Q62.42-7.13 63.51-6.12 64.59-5.1 65.77-4.37 66.94-3.64 68.04-3.25 69.14-2.86 69.82-2.86L69.82-2.86Q70.38-2.86 71.09-2.89 71.8-2.93 72.53-3.04 73.26-3.15 73.97-3.37 74.68-3.59 75.23-3.97 75.78-4.35 76.11-4.92 76.44-5.49 76.44-6.3L76.44-6.3Q76.44-7.13 76.01-7.75 75.58-8.37 74.9-8.84 74.21-9.3 73.33-9.62 72.46-9.94 71.56-10.18 70.67-10.42 69.84-10.61 69.01-10.79 68.4-10.96L68.4-10.96Q67.28-11.28 66.04-11.61 64.79-11.94 63.57-12.37 62.35-12.79 61.24-13.38 60.13-13.96 59.28-14.78 58.44-15.6 57.94-16.71 57.44-17.82 57.44-19.31L57.44-19.31Q57.44-22.05 58.53-23.89 59.61-25.73 61.4-26.84 63.18-27.95 65.45-28.42 67.72-28.88 70.06-28.88L70.06-28.88Q71.67-28.88 73.46-28.55 75.24-28.22 76.92-27.58 78.61-26.93 80.07-26 81.54-25.07 82.51-23.88L82.51-23.88 77.7-19.92Q77.17-21.39 76.3-22.44 75.43-23.49 74.42-24.16 73.41-24.83 72.35-25.15 71.28-25.46 70.38-25.46L70.38-25.46Q69.5-25.46 68.4-25.39 67.3-25.32 66.34-24.98 65.38-24.63 64.7-23.94 64.03-23.24 64.03-22.02L64.03-22.02Q64.03-21.14 64.44-20.52 64.84-19.9 65.5-19.45 66.16-18.99 67-18.69 67.84-18.38 68.72-18.15 69.6-17.92 70.43-17.75 71.26-17.58 71.92-17.38L71.92-17.38Q73.04-17.07 74.3-16.74 75.56-16.41 76.78-15.98 78-15.55 79.13-14.98 80.27-14.4 81.12-13.57 81.98-12.74 82.49-11.63 83-10.52 83-9.01ZM117.03-16.16L117.03-16.16Q117.03-13.31 116.34-10.21 115.64-7.1 114.4-4.13 113.15-1.15 111.42 1.48 109.68 4.1 107.61 6.01L107.61 6.01 104.51 4.32Q105.17 3.1 105.75 1.59 106.34 0.07 106.82-1.62 107.29-3.32 107.67-5.13 108.05-6.93 108.31-8.7 108.56-10.47 108.7-12.15 108.83-13.82 108.83-15.26L108.83-15.26Q108.83-16.21 108.76-17.3 108.68-18.38 108.45-19.47 108.22-20.56 107.83-21.56 107.44-22.56 106.79-23.32 106.14-24.07 105.23-24.54 104.31-25 103.07-25L103.07-25Q101.85-25 100.9-24.45 99.94-23.9 99.21-23.01 98.48-22.12 97.95-20.97 97.43-19.82 97.1-18.62 96.77-17.41 96.62-16.24 96.48-15.06 96.48-14.14L96.48-14.14 96.48 0 88.2 0 88.2-38.57 96.45-38.57 96.45-24.05Q98.04-26.37 100.35-27.62 102.65-28.88 105.46-28.88L105.46-28.88Q108.39-28.88 110.56-27.93 112.74-26.98 114.18-25.28 115.62-23.58 116.33-21.25 117.03-18.92 117.03-16.16ZM131.14-35.01L131.14-35.01Q131.14-34.08 130.79-33.25 130.43-32.42 129.82-31.81 129.21-31.2 128.38-30.85 127.55-30.49 126.63-30.49L126.63-30.49Q125.7-30.49 124.88-30.85 124.06-31.2 123.45-31.81 122.84-32.42 122.49-33.25 122.13-34.08 122.13-35.01L122.13-35.01Q122.13-35.94 122.49-36.76 122.84-37.57 123.45-38.18 124.06-38.79 124.88-39.15 125.7-39.5 126.63-39.5L126.63-39.5Q127.55-39.5 128.38-39.15 129.21-38.79 129.82-38.18 130.43-37.57 130.79-36.76 131.14-35.94 131.14-35.01ZM130.78-28.17L130.78 0 122.5 0 122.5-28.17 130.78-28.17ZM148.3-24.93L148.3 0 140.03 0 140.03-24.93 134.9-24.93 134.9-28.2 140.03-28.2 140.03-38.57 148.3-38.57 148.3-28.2 156.85-28.2 156.85-24.93 148.3-24.93Z" fill="#fc5a03" data-fill-palette-color="primary"></path></g></svg></g></svg></g></svg></g></svg></g><g></g></svg></g><defs></defs></svg><rect width="395.52" height="117.95988479999998" fill="none" stroke="none" visibility="hidden"></rect></g></svg></g></svg>